<mxfile host="app.diagrams.net" modified="2023-09-23T18:00:43.504Z" agent="Mozilla/5.0 (Windows NT 10.0; Win64; x64) AppleWebKit/537.36 (KHTML, like Gecko) Chrome/117.0.0.0 Safari/537.36" etag="mZ_RdTJ6l2JDIGzJwRik" version="21.8.1" type="github">
  <diagram name="Page-1" id="z81xrzkg7BTSoBhp2WS7">
    <mxGraphModel dx="860" dy="356" grid="1" gridSize="10" guides="0" tooltips="1" connect="1" arrows="1" fold="1" page="1" pageScale="1" pageWidth="3300" pageHeight="4681" math="0" shadow="0">
      <root>
        <mxCell id="0" />
        <mxCell id="1" parent="0" />
        <mxCell id="N6MTUs9ApPDVcRBgriUJ-9" value="" style="rounded=1;whiteSpace=wrap;html=1;movable=1;resizable=1;rotatable=1;deletable=1;editable=1;locked=0;connectable=1;" parent="1" vertex="1">
          <mxGeometry x="880" y="800" width="390" height="160" as="geometry" />
        </mxCell>
        <mxCell id="N6MTUs9ApPDVcRBgriUJ-1" value="&lt;font face=&quot;Georgia&quot; style=&quot;font-size: 72px;&quot;&gt;&lt;b style=&quot;&quot;&gt;&lt;u style=&quot;&quot;&gt;KHOJ Web Site&lt;/u&gt;&lt;/b&gt;&lt;/font&gt;" style="text;html=1;strokeColor=none;fillColor=none;align=center;verticalAlign=middle;whiteSpace=wrap;rounded=0;movable=1;resizable=1;rotatable=1;deletable=1;editable=1;locked=0;connectable=1;" parent="1" vertex="1">
          <mxGeometry x="1130" y="60" width="980" height="220" as="geometry" />
        </mxCell>
        <mxCell id="N6MTUs9ApPDVcRBgriUJ-3" value="" style="rounded=1;whiteSpace=wrap;html=1;movable=1;resizable=1;rotatable=1;deletable=1;editable=1;locked=0;connectable=1;" parent="1" vertex="1">
          <mxGeometry x="1280" y="320" width="710" height="230" as="geometry" />
        </mxCell>
        <mxCell id="N6MTUs9ApPDVcRBgriUJ-2" value="&lt;h3&gt;&lt;font face=&quot;Garamond&quot; style=&quot;font-size: 48px;&quot;&gt;khojorg.tech&lt;/font&gt;&lt;/h3&gt;" style="text;html=1;strokeColor=none;fillColor=none;align=center;verticalAlign=middle;whiteSpace=wrap;rounded=0;movable=1;resizable=1;rotatable=1;deletable=1;editable=1;locked=0;connectable=1;" parent="1" vertex="1">
          <mxGeometry x="1280" y="330" width="710" height="220" as="geometry" />
        </mxCell>
        <mxCell id="N6MTUs9ApPDVcRBgriUJ-4" value="" style="rounded=1;whiteSpace=wrap;html=1;" parent="1" vertex="1">
          <mxGeometry x="240" y="800" width="400" height="160" as="geometry" />
        </mxCell>
        <mxCell id="N6MTUs9ApPDVcRBgriUJ-10" value="" style="rounded=1;whiteSpace=wrap;html=1;movable=1;resizable=1;rotatable=1;deletable=1;editable=1;locked=0;connectable=1;" parent="1" vertex="1">
          <mxGeometry x="1520" y="800" width="400" height="160" as="geometry" />
        </mxCell>
        <mxCell id="N6MTUs9ApPDVcRBgriUJ-11" value="" style="rounded=1;whiteSpace=wrap;html=1;movable=1;resizable=1;rotatable=1;deletable=1;editable=1;locked=0;connectable=1;" parent="1" vertex="1">
          <mxGeometry x="2160" y="800" width="400" height="160" as="geometry" />
        </mxCell>
        <mxCell id="N6MTUs9ApPDVcRBgriUJ-12" value="" style="rounded=1;whiteSpace=wrap;html=1;movable=1;resizable=1;rotatable=1;deletable=1;editable=1;locked=0;connectable=1;" parent="1" vertex="1">
          <mxGeometry x="2800" y="800" width="400" height="160" as="geometry" />
        </mxCell>
        <mxCell id="ZNMDXk2eRB_lM-zhSy-h-1" style="edgeStyle=orthogonalEdgeStyle;rounded=0;orthogonalLoop=1;jettySize=auto;html=1;exitX=0.5;exitY=0;exitDx=0;exitDy=0;" edge="1" parent="1" source="YsTA44RcOsl31eqra_B--14" target="N6MTUs9ApPDVcRBgriUJ-3">
          <mxGeometry relative="1" as="geometry">
            <mxPoint x="450" y="580" as="targetPoint" />
            <Array as="points">
              <mxPoint x="440" y="680" />
              <mxPoint x="1635" y="680" />
            </Array>
          </mxGeometry>
        </mxCell>
        <mxCell id="YsTA44RcOsl31eqra_B--14" value="&lt;font style=&quot;font-size: 48px;&quot; face=&quot;Garamond&quot;&gt;&lt;b style=&quot;&quot;&gt;Home&lt;/b&gt;&lt;/font&gt;" style="text;html=1;strokeColor=none;fillColor=none;align=center;verticalAlign=middle;whiteSpace=wrap;rounded=0;fontSize=11;fontFamily=Helvetica;fontColor=default;movable=1;resizable=1;rotatable=1;deletable=1;editable=1;locked=0;connectable=1;" parent="1" vertex="1">
          <mxGeometry x="240" y="800" width="400" height="160" as="geometry" />
        </mxCell>
        <mxCell id="YsTA44RcOsl31eqra_B--15" value="&lt;font style=&quot;font-size: 48px;&quot; face=&quot;Garamond&quot;&gt;&lt;b style=&quot;&quot;&gt;Gallery&lt;/b&gt;&lt;/font&gt;" style="text;html=1;strokeColor=none;fillColor=none;align=center;verticalAlign=middle;whiteSpace=wrap;rounded=0;fontSize=11;fontFamily=Helvetica;fontColor=default;movable=1;resizable=1;rotatable=1;deletable=1;editable=1;locked=0;connectable=1;" parent="1" vertex="1">
          <mxGeometry x="880" y="800" width="390" height="160" as="geometry" />
        </mxCell>
        <mxCell id="YsTA44RcOsl31eqra_B--16" value="&lt;font face=&quot;Garamond&quot; style=&quot;font-size: 48px;&quot;&gt;&lt;b style=&quot;&quot;&gt;Events&lt;/b&gt;&lt;/font&gt;" style="text;html=1;strokeColor=none;fillColor=none;align=center;verticalAlign=middle;whiteSpace=wrap;rounded=0;fontSize=11;fontFamily=Helvetica;fontColor=default;movable=1;resizable=1;rotatable=1;deletable=1;editable=1;locked=0;connectable=1;" parent="1" vertex="1">
          <mxGeometry x="1520" y="800" width="400" height="160" as="geometry" />
        </mxCell>
        <mxCell id="YsTA44RcOsl31eqra_B--17" value="&lt;font face=&quot;Garamond&quot; style=&quot;font-size: 48px;&quot;&gt;&lt;b style=&quot;&quot;&gt;About Us&lt;/b&gt;&lt;/font&gt;" style="text;html=1;strokeColor=none;fillColor=none;align=center;verticalAlign=middle;whiteSpace=wrap;rounded=0;fontSize=11;fontFamily=Helvetica;fontColor=default;movable=1;resizable=1;rotatable=1;deletable=1;editable=1;locked=0;connectable=1;" parent="1" vertex="1">
          <mxGeometry x="2160" y="800" width="400" height="160" as="geometry" />
        </mxCell>
        <mxCell id="ZNMDXk2eRB_lM-zhSy-h-14" style="edgeStyle=orthogonalEdgeStyle;rounded=0;orthogonalLoop=1;jettySize=auto;html=1;exitX=0;exitY=0.5;exitDx=0;exitDy=0;entryX=0;entryY=0.5;entryDx=0;entryDy=0;" edge="1" parent="1" source="YsTA44RcOsl31eqra_B--18" target="ZNMDXk2eRB_lM-zhSy-h-12">
          <mxGeometry relative="1" as="geometry">
            <mxPoint x="2710" y="1100" as="targetPoint" />
            <Array as="points">
              <mxPoint x="2751" y="880" />
              <mxPoint x="2751" y="881" />
              <mxPoint x="2720" y="881" />
              <mxPoint x="2720" y="1090" />
            </Array>
          </mxGeometry>
        </mxCell>
        <mxCell id="YsTA44RcOsl31eqra_B--18" value="&lt;font face=&quot;Garamond&quot; style=&quot;font-size: 48px;&quot;&gt;&lt;b style=&quot;&quot;&gt;Contact US&lt;/b&gt;&lt;/font&gt;" style="text;html=1;strokeColor=none;fillColor=none;align=center;verticalAlign=middle;whiteSpace=wrap;rounded=0;fontSize=11;fontFamily=Helvetica;fontColor=default;movable=1;resizable=1;rotatable=1;deletable=1;editable=1;locked=0;connectable=1;" parent="1" vertex="1">
          <mxGeometry x="2800" y="800" width="400" height="160" as="geometry" />
        </mxCell>
        <mxCell id="ZNMDXk2eRB_lM-zhSy-h-6" value="" style="endArrow=none;html=1;rounded=0;" edge="1" parent="1">
          <mxGeometry width="50" height="50" relative="1" as="geometry">
            <mxPoint x="1080" y="800" as="sourcePoint" />
            <mxPoint x="1080" y="680" as="targetPoint" />
          </mxGeometry>
        </mxCell>
        <mxCell id="ZNMDXk2eRB_lM-zhSy-h-7" value="" style="endArrow=none;html=1;rounded=0;" edge="1" parent="1">
          <mxGeometry width="50" height="50" relative="1" as="geometry">
            <mxPoint x="1630" y="680" as="sourcePoint" />
            <mxPoint x="3000" y="680" as="targetPoint" />
          </mxGeometry>
        </mxCell>
        <mxCell id="ZNMDXk2eRB_lM-zhSy-h-8" value="" style="endArrow=none;html=1;rounded=0;exitX=0.5;exitY=0;exitDx=0;exitDy=0;" edge="1" parent="1">
          <mxGeometry width="50" height="50" relative="1" as="geometry">
            <mxPoint x="3000" y="800" as="sourcePoint" />
            <mxPoint x="3000" y="680" as="targetPoint" />
          </mxGeometry>
        </mxCell>
        <mxCell id="ZNMDXk2eRB_lM-zhSy-h-10" value="" style="endArrow=none;html=1;rounded=0;exitX=0.5;exitY=0;exitDx=0;exitDy=0;" edge="1" parent="1" source="YsTA44RcOsl31eqra_B--16">
          <mxGeometry width="50" height="50" relative="1" as="geometry">
            <mxPoint x="1690" y="740" as="sourcePoint" />
            <mxPoint x="1720" y="680" as="targetPoint" />
          </mxGeometry>
        </mxCell>
        <mxCell id="ZNMDXk2eRB_lM-zhSy-h-11" value="" style="endArrow=none;html=1;rounded=0;" edge="1" parent="1" source="YsTA44RcOsl31eqra_B--17">
          <mxGeometry width="50" height="50" relative="1" as="geometry">
            <mxPoint x="2360" y="779.2893218813452" as="sourcePoint" />
            <mxPoint x="2360" y="680" as="targetPoint" />
          </mxGeometry>
        </mxCell>
        <mxCell id="ZNMDXk2eRB_lM-zhSy-h-12" value="" style="rounded=1;whiteSpace=wrap;html=1;" vertex="1" parent="1">
          <mxGeometry x="2870" y="1040" width="270" height="100" as="geometry" />
        </mxCell>
        <mxCell id="ZNMDXk2eRB_lM-zhSy-h-13" value="" style="rounded=1;whiteSpace=wrap;html=1;" vertex="1" parent="1">
          <mxGeometry x="2870" y="1220" width="270" height="100" as="geometry" />
        </mxCell>
        <mxCell id="ZNMDXk2eRB_lM-zhSy-h-15" value="" style="endArrow=classic;html=1;rounded=0;" edge="1" parent="1">
          <mxGeometry width="50" height="50" relative="1" as="geometry">
            <mxPoint x="2720" y="1090" as="sourcePoint" />
            <mxPoint x="2870" y="1270" as="targetPoint" />
            <Array as="points">
              <mxPoint x="2720" y="1270" />
            </Array>
          </mxGeometry>
        </mxCell>
        <mxCell id="ZNMDXk2eRB_lM-zhSy-h-16" value="&lt;font style=&quot;font-size: 24px;&quot; face=&quot;Times New Roman&quot;&gt;&lt;b style=&quot;&quot;&gt;JOIN US !!&lt;/b&gt;&lt;/font&gt;" style="text;html=1;strokeColor=none;fillColor=none;align=center;verticalAlign=middle;whiteSpace=wrap;rounded=0;" vertex="1" parent="1">
          <mxGeometry x="2870" y="1040" width="270" height="100" as="geometry" />
        </mxCell>
        <mxCell id="ZNMDXk2eRB_lM-zhSy-h-18" value="&lt;font style=&quot;font-size: 24px;&quot; face=&quot;Times New Roman&quot;&gt;&lt;b style=&quot;&quot;&gt;Send Message&lt;/b&gt;&lt;/font&gt;" style="text;html=1;strokeColor=none;fillColor=none;align=center;verticalAlign=middle;whiteSpace=wrap;rounded=0;" vertex="1" parent="1">
          <mxGeometry x="2870" y="1220" width="270" height="100" as="geometry" />
        </mxCell>
      </root>
    </mxGraphModel>
  </diagram>
</mxfile>
